<?xml version="1.0" encoding="UTF-8" standalone="no"?>
<!-- Created with Inkscape (http://www.inkscape.org/) -->

<svg
   width="113.18118mm"
   height="35.24588mm"
   viewBox="0 0 113.18118 35.24588"
   version="1.1"
   id="svg1"
   xml:space="preserve"
   xmlns="http://www.w3.org/2000/svg"
   xmlns:svg="http://www.w3.org/2000/svg"><defs
     id="defs1"><filter
       style="color-interpolation-filters:sRGB"
       id="filter5"
       x="0"
       y="0"
       width="1"
       height="1"><feColorMatrix
         values="1 0 0 0 0 0 1 0 0 0 0 0 1 0 0 0 0 0 5 -1 "
         result="colormatrix"
         id="feColorMatrix5" /><feComposite
         in2="colormatrix"
         operator="arithmetic"
         k2="0.606154"
         result="composite"
         id="feComposite5"
         k1="0"
         k3="0"
         k4="0" /></filter></defs><g
     id="layer1"
     style="display:inline"
     transform="translate(-48.39752,-139.57333)"><g
       id="g19"><path
         style="fill:#ececec;stroke-width:0.214605"
         d="m 53.539374,141.72675 v -2.15342 h 6.877782 6.877781 v 2.15342 2.15343 h -6.877781 -6.877782 z"
         id="path11" /><path
         style="fill:#c87137;stroke-width:0.214605"
         d="m 68.173887,148.60454 v -8.15226 h 0.856976 0.856976 v 0.4175 0.4175 h 0.439474 0.439475 v 0.43947 0.43948 h 0.417501 0.4175 v 0.4175 0.4175 h 0.439476 0.439475 v 6.02081 6.0208 h -0.439475 -0.439476 v 0.43948 0.43947 h -0.4175 -0.417501 v 0.4175 0.4175 h -1.296451 -1.29645 z"
         id="path10" /><path
         style="fill:#c87137;stroke-width:0.214605"
         d="m 50.111472,156.33929 v -0.4175 H 49.693971 49.27647 v -0.43947 -0.43948 H 48.836995 48.39752 v -6.0208 -6.02081 h 0.439475 0.439475 v -0.4175 -0.4175 h 0.417501 0.417501 v -0.43948 -0.43947 h 0.439475 0.439475 v -0.4175 -0.4175 h 0.856976 0.856976 v 8.15226 8.15225 h -1.296451 -1.296451 z"
         id="path9" /><path
         style="fill:#c87137;stroke-width:0.214605"
         d="m 53.539374,157.19627 v -2.15343 h 6.877782 6.877781 v 2.15343 2.15342 h -6.877781 -6.877782 z"
         id="path8" /><path
         style="fill:#c87137;stroke-width:0.214605"
         d="m 68.173887,165.80998 v -8.17424 h 1.29645 1.296451 v 0.43948 0.43947 h 0.417501 0.4175 v 0.4175 0.4175 h 0.439476 0.439475 v 6.02081 6.02081 h -0.439475 -0.439476 v 0.4175 0.4175 h -0.4175 -0.417501 v 0.43947 0.43948 h -0.439475 -0.439474 v 0.43947 0.43948 h -0.856976 -0.856976 z"
         id="path7" /><path
         style="fill:#c87137;stroke-width:0.214605"
         d="m 50.990422,173.54473 v -0.43947 h -0.439475 -0.439475 v -0.43948 -0.43947 H 49.693971 49.27647 v -0.4175 -0.4175 H 48.836995 48.39752 v -6.02081 -6.02081 h 0.439475 0.439475 v -0.4175 -0.4175 h 0.417501 0.417501 v -0.43947 -0.43948 h 1.296451 1.296451 v 8.17424 8.17423 h -0.856976 -0.856976 z"
         id="path6" /><path
         style="fill:#ececec;stroke-width:0.214605"
         d="m 53.539374,172.66578 v -2.15342 h 6.877782 6.877781 v 2.15342 2.15343 h -6.877781 -6.877782 z"
         id="path5" /></g></g><g
     id="layer3"
     transform="translate(-48.39752,-139.57333)"><g
       id="g18"
       transform="translate(-0.6088905,-0.07964)"><path
         style="display:inline;fill:#c87137;stroke-width:0.214605"
         d="m 83.847585,141.80639 v -2.15342 h 6.877779 6.87778 v 2.15342 2.15343 h -6.87778 -6.877779 z"
         id="path11-7" /><path
         style="display:inline;fill:#c87137;stroke-width:0.214605"
         d="m 98.482094,148.68418 v -8.15226 h 0.85698 0.856976 v 0.4175 0.4175 h 0.43947 0.43948 v 0.43947 0.43948 h 0.4175 0.4175 v 0.4175 0.4175 h 0.43947 0.43948 v 6.02081 6.0208 H 102.34947 101.91 v 0.43948 0.43947 h -0.4175 -0.4175 v 0.4175 0.4175 h -1.296456 -1.29645 z"
         id="path10-4" /><path
         style="display:inline;fill:#c87137;stroke-width:0.214605"
         d="m 80.419683,156.41893 v -0.4175 h -0.417501 -0.417501 v -0.43947 -0.43948 h -0.439475 -0.439475 v -6.0208 -6.02081 h 0.439475 0.439475 v -0.4175 -0.4175 h 0.417501 0.417501 v -0.43948 -0.43947 h 0.439475 0.439475 v -0.4175 -0.4175 h 0.856976 0.856976 v 8.15226 8.15225 h -1.296451 -1.296451 z"
         id="path9-4" /><path
         style="display:inline;fill:#f2f2f2;stroke-width:0.214605"
         d="m 83.847585,157.27591 v -2.15343 h 6.877779 6.87778 v 2.15343 2.15342 h -6.87778 -6.877779 z"
         id="path8-6" /><path
         style="display:inline;fill:#c87137;stroke-width:0.214605"
         d="m 98.482094,165.88962 v -8.17424 h 1.29645 1.296456 v 0.43948 0.43947 h 0.4175 0.4175 v 0.4175 0.4175 h 0.43947 0.43948 v 6.02081 6.02081 H 102.34947 101.91 v 0.4175 0.4175 h -0.4175 -0.4175 v 0.43947 0.43948 h -0.43948 -0.43947 v 0.43947 0.43948 h -0.856976 -0.85698 z"
         id="path7-4" /><path
         style="display:inline;fill:#c87137;stroke-width:0.214605"
         d="m 81.298633,173.62437 v -0.43947 h -0.439475 -0.439475 v -0.43948 -0.43947 h -0.417501 -0.417501 v -0.4175 -0.4175 h -0.439475 -0.439475 v -6.02081 -6.02081 h 0.439475 0.439475 v -0.4175 -0.4175 h 0.417501 0.417501 v -0.43947 -0.43948 h 1.296451 1.296451 v 8.17424 8.17423 h -0.856976 -0.856976 z"
         id="path6-7" /><path
         style="display:inline;fill:#c87137;stroke-width:0.214605"
         d="M 83.847585,172.74542 V 170.592 h 6.877779 6.87778 v 2.15342 2.15343 h -6.87778 -6.877779 z"
         id="path5-8" /></g></g><g
     id="layer4"
     transform="translate(-48.39752,-139.57333)"><g
       id="g17"
       transform="translate(-0.21769,0.21094)"><path
         style="display:inline;fill:#c87137;stroke-width:0.214605"
         d="m 113.1557,141.51581 v -2.15342 h 6.87779 6.87778 v 2.15342 2.15343 h -6.87778 -6.87779 z"
         id="path11-5" /><path
         style="display:inline;fill:#ececec;stroke-width:0.214605"
         d="m 127.79022,148.3936 v -8.15226 h 0.85697 0.85698 v 0.4175 0.4175 h 0.43947 0.43948 v 0.43947 0.43948 h 0.4175 0.4175 v 0.4175 0.4175 h 0.43948 0.43947 v 6.02081 6.0208 h -0.43947 -0.43948 v 0.43948 0.43947 h -0.4175 -0.4175 v 0.4175 0.4175 h -1.29645 -1.29645 z"
         id="path10-2" /><path
         style="display:inline;fill:#c87137;stroke-width:0.214605"
         d="m 109.7278,156.12835 v -0.4175 h -0.4175 -0.4175 v -0.43947 -0.43948 h -0.43947 -0.43948 v -6.0208 -6.02081 h 0.43948 0.43947 v -0.4175 -0.4175 h 0.4175 0.4175 v -0.43948 -0.43947 h 0.43948 0.43947 v -0.4175 -0.4175 h 0.85698 0.85697 v 8.15226 8.15225 h -1.29645 -1.29645 z"
         id="path9-6" /><path
         style="display:inline;fill:#c87137;stroke-width:0.214605"
         d="m 113.1557,156.98533 v -2.15343 h 6.87779 6.87778 v 2.15343 2.15342 h -6.87778 -6.87779 z"
         id="path8-7" /><path
         style="display:inline;fill:#c87137;stroke-width:0.214605"
         d="m 127.79022,165.59904 v -8.17424 h 1.29645 1.29645 v 0.43948 0.43947 h 0.4175 0.4175 v 0.4175 0.4175 h 0.43948 0.43947 v 6.02081 6.02081 h -0.43947 -0.43948 v 0.4175 0.4175 h -0.4175 -0.4175 v 0.43947 0.43948 h -0.43948 -0.43947 v 0.43947 0.43948 h -0.85698 -0.85697 z"
         id="path7-5" /><path
         style="display:inline;fill:#c87137;stroke-width:0.214605"
         d="m 110.60675,173.33379 v -0.43947 h -0.43947 -0.43948 v -0.43948 -0.43947 h -0.4175 -0.4175 v -0.4175 -0.4175 h -0.43947 -0.43948 v -6.02081 -6.02081 h 0.43948 0.43947 v -0.4175 -0.4175 h 0.4175 0.4175 v -0.43947 -0.43948 h 1.29645 1.29645 v 8.17424 8.17423 h -0.85697 -0.85698 z"
         id="path6-4" /><path
         style="display:inline;fill:#c87137;stroke-width:0.214605"
         d="m 113.1557,172.45484 v -2.15342 h 6.87779 6.87778 v 2.15342 2.15343 h -6.87778 -6.87779 z"
         id="path5-4" /><path
         style="fill:#c87137;stroke-width:0.264583"
         d="m 120.0333,154.8537 v 4.30053"
         id="path14" /><path
         style="fill:#c87137;stroke-width:0.264583"
         d="m 120.03349,154.8341 v 4.31851"
         id="path15" /><path
         style="fill:#c87137;stroke-width:0.264583"
         d="m 120.03349,154.84952 v 4.30309"
         id="path16" /></g></g><g
     id="layer5"
     transform="translate(-48.39752,-139.57333)"><g
       id="g20"
       transform="translate(0,0.26617)"><path
         style="display:inline;fill:#c87137;stroke-width:0.214605"
         d="m 142.63733,141.46058 v -2.15342 h 6.87779 6.87778 v 2.15342 2.15343 h -6.87778 -6.87779 z"
         id="path11-1" /><path
         style="display:inline;fill:#c87137;stroke-width:0.214605"
         d="m 157.27185,148.33837 v -8.15226 h 0.85697 0.85698 v 0.4175 0.4175 h 0.43947 0.43948 v 0.43947 0.43948 h 0.4175 0.4175 v 0.4175 0.4175 h 0.43947 0.43948 v 6.02081 6.0208 h -0.43948 -0.43947 v 0.43948 0.43947 h -0.4175 -0.4175 v 0.4175 0.4175 h -1.29645 -1.29645 z"
         id="path10-49" /><path
         style="display:inline;fill:#c87137;stroke-width:0.214605"
         d="m 139.20943,156.07312 v -0.4175 h -0.4175 -0.4175 v -0.43947 -0.43948 h -0.43948 -0.43947 v -6.0208 -6.02081 h 0.43947 0.43948 v -0.4175 -0.4175 h 0.4175 0.4175 v -0.43948 -0.43947 h 0.43948 0.43947 v -0.4175 -0.4175 h 0.85698 0.85697 v 8.15226 8.15225 h -1.29645 -1.29645 z"
         id="path9-7" /><path
         style="display:inline;fill:#c87137;stroke-width:0.214605"
         d="m 142.63733,156.9301 v -2.15343 h 6.87779 6.87778 v 2.15343 2.15342 h -6.87778 -6.87779 z"
         id="path8-2" /><path
         style="display:inline;fill:#c87137;stroke-width:0.214605"
         d="m 157.27185,165.54381 v -8.17424 h 1.29645 1.29645 v 0.43948 0.43947 h 0.4175 0.4175 v 0.4175 0.4175 h 0.43947 0.43948 v 6.02081 6.02081 h -0.43948 -0.43947 v 0.4175 0.4175 h -0.4175 -0.4175 v 0.43947 0.43948 h -0.43948 -0.43947 v 0.43947 0.43948 h -0.85698 -0.85697 z"
         id="path7-0" /><path
         style="display:inline;fill:#c87137;stroke-width:0.214605"
         d="m 140.08838,173.27856 v -0.43947 h -0.43947 -0.43948 v -0.43948 -0.43947 h -0.4175 -0.4175 v -0.4175 -0.4175 h -0.43948 -0.43947 v -6.02081 -6.02081 h 0.43947 0.43948 v -0.4175 -0.4175 h 0.4175 0.4175 v -0.43947 -0.43948 h 1.29645 1.29645 v 8.17424 8.17423 h -0.85697 -0.85698 z"
         id="path6-43" /><path
         style="display:inline;fill:#ececec;stroke-width:0.214605"
         d="m 142.63733,172.39961 v -2.15342 h 6.87779 6.87778 v 2.15342 2.15343 h -6.87778 -6.87779 z"
         id="path5-0" /></g></g></svg>
