<?xml version="1.0" encoding="UTF-8" standalone="no"?>
<!-- Created with Inkscape (http://www.inkscape.org/) -->

<svg
   width="206.07996mm"
   height="198.53326mm"
   viewBox="0 0 206.07996 198.53326"
   version="1.1"
   id="svg1"
   xml:space="preserve"
   xmlns:inkscape="http://www.inkscape.org/namespaces/inkscape"
   xmlns:sodipodi="http://sodipodi.sourceforge.net/DTD/sodipodi-0.dtd"
   xmlns="http://www.w3.org/2000/svg"
   xmlns:svg="http://www.w3.org/2000/svg"><sodipodi:namedview
     id="namedview1"
     pagecolor="#ffffff"
     bordercolor="#111111"
     borderopacity="1"
     inkscape:showpageshadow="0"
     inkscape:pageopacity="0"
     inkscape:pagecheckerboard="1"
     inkscape:deskcolor="#d1d1d1"
     inkscape:document-units="mm" /><defs
     id="defs1" /><g
     inkscape:label="Layer 1"
     inkscape:groupmode="layer"
     id="layer1"
     transform="translate(-3.2085553,-47.309718)"><path
       style="fill:#000000"
       d="m 131.36047,245.43371 c -2.15562,-0.57208 -4.88121,-3.41588 -5.45397,-5.69051 -0.24986,-0.9923 -0.45429,-2.18133 -0.45429,-2.64229 0,-0.46096 -0.22573,-0.90788 -0.50161,-0.99314 -0.27589,-0.0853 -1.58508,-0.47563 -2.90933,-0.86748 -1.32425,-0.39184 -3.61982,-1.32359 -5.10126,-2.07054 -2.69354,-1.35809 -2.69354,-1.35809 -4.2246,-0.1277 -2.6089,2.09658 -7.14305,2.35859 -10.17477,0.58797 -0.75103,-0.43863 -1.90741,-1.60009 -2.56973,-2.58103 -1.05355,-1.56037 -1.20423,-2.135 -1.20425,-4.59254 -3e-5,-2.84449 0.74421,-5.17242 1.98208,-6.19976 0.5112,-0.42426 0.35204,-0.94072 -1.16096,-3.76719 -1.43687,-2.68425 -2.829651,-6.24836 -3.671431,-9.39514 -0.0738,-0.27589 -0.6155,-0.50161 -1.20376,-0.50161 -3.54089,0 -7.21729,-2.76284 -8.16086,-6.13295 -1.52643,-5.4519 1.75516,-10.43518 7.52542,-11.42776 1.72402,-0.29656 1.72402,-0.29656 2.72644,-3.30621 0.55133,-1.65531 1.698401,-4.38205 2.549031,-6.05943 1.5466,-3.04976 1.5466,-3.04976 0.59935,-4.21351 -1.43729,-1.76578 -2.025481,-4.88352 -1.42638,-7.56059 0.3741,-1.67164 0.8809,-2.57563 2.16249,-3.85721 2.09869,-2.09869 3.04533,-2.4722 6.31106,-2.49015 2.73006,-0.015 4.43247,0.58516 5.73145,2.02051 0.71493,0.78999 0.73316,0.78786 2.80806,-0.32848 1.97128,-1.06059 5.87879,-2.64599 8.47466,-3.43844 1.0472,-0.31968 1.22442,-0.62681 1.69511,-2.93784 0.4178,-2.05131 0.83654,-2.90484 2.04083,-4.1599 1.95327,-2.03561 3.53173,-2.68951 6.49226,-2.68951 2.9319,0 4.25515,0.47067 5.99223,2.13137 1.74355,1.66689 2.31746,2.82643 2.66349,5.38135 0.27388,2.02228 0.33489,2.10493 1.74963,2.37034 1.82716,0.34278 6.50346,2.25464 8.78474,3.59155 1.71871,1.00724 1.71871,1.00724 3.22996,-0.20723 3.32935,-2.67554 9.10211,-2.26922 12.01017,0.84534 2.80198,3.00096 2.81667,8.89925 0.0296,11.86599 -0.85417,0.90923 -0.85417,0.90923 0.59554,3.81771 0.79734,1.59966 1.89964,4.25316 2.44956,5.89667 0.99986,2.9882 0.99986,2.9882 3.36944,3.63684 3.10482,0.8499 4.51748,1.90601 5.71669,4.27384 1.73365,3.42308 1.05013,8.36742 -1.47205,10.64823 -1.11108,1.00475 -4.18643,2.31056 -5.46546,2.32066 -0.61387,0.005 -1.17763,0.23453 -1.25279,0.51042 -0.68005,2.49619 -2.98966,8.17754 -4.0888,10.05793 -1.36379,2.33316 -1.36379,2.33316 -0.21129,3.81222 1.31742,1.69072 2.19025,4.78127 1.80706,6.39855 -1.15699,4.88322 -4.15943,7.4201 -8.7818,7.4201 -2.53897,0 -4.43708,-0.68567 -6.09713,-2.20251 -0.88039,-0.80445 -0.88039,-0.80445 -3.81222,0.6159 -2.46456,1.19397 -4.22989,1.8499 -7.8195,2.90545 -0.26044,0.0766 -0.5999,1.0075 -0.75436,2.06872 -0.35897,2.46622 -0.96889,3.64525 -2.81158,5.43505 -2.16662,2.10443 -5.24029,2.74934 -8.71213,1.82794 z m 9.14,-20.60548 c 9.81491,-1.98354 18.51453,-10.65314 20.84032,-20.76843 3.1559,-13.72555 -4.48457,-27.49245 -18.03131,-32.48953 -2.93368,-1.08216 -3.67708,-1.18774 -8.62767,-1.22526 -7.59674,-0.0576 -12.12998,1.40754 -17.68792,5.71661 -4.19865,3.25521 -8.35639,9.43397 -9.6096,14.28069 -0.87346,3.37805 -0.95426,11.15557 -0.14769,14.2169 1.26625,4.80606 5.01797,11.14636 8.16001,13.79022 2.16782,1.82409 6.62741,4.56066 8.85174,5.43173 2.98859,1.17038 8.54318,2.07001 11.23603,1.81982 1.21389,-0.11279 3.47113,-0.46053 5.01609,-0.77275 z M 58.204464,216.5627 c -1.025489,-1.98308 -1.468169,-9.21684 -1.224058,-20.00213 0.15584,-6.88526 0.411456,-10.61319 0.852977,-12.43989 0.346749,-1.4346 1.01246,-4.84321 1.479357,-7.57469 0.799912,-4.67969 0.813082,-5.1313 0.228197,-7.82509 -0.341389,-1.57233 -1.072952,-3.85196 -1.625696,-5.06586 -2.975882,-6.53539 -5.038671,-11.20752 -7.175463,-16.25212 -1.308826,-3.08991 -2.640423,-6.18705 -2.959105,-6.88253 -0.318682,-0.69547 -0.579422,-1.36729 -0.579422,-1.49293 0,-0.12563 -0.431406,-1.18182 -0.958681,-2.34707 -1.356055,-2.99684 -3.757725,-9.53226 -4.423662,-12.03768 -2.766894,-10.40971 -4.919706,-13.83295 -9.142332,-14.53743 -2.866916,-0.47831 -6.315996,-1.00007 -10.756403,-1.6272 -2.317432,-0.32729 -5.387277,-0.78061 -6.821877,-1.00737 -1.434601,-0.22676 -4.668819,-0.67859 -7.1871503,-1.00407 -2.5183299,-0.32547 -4.6332379,-0.64623 -4.6997929,-0.71278 -0.06655,-0.0666 1.062474,-2.18952 2.508955,-4.7177 2.4069644,-4.206921 3.7346674,-6.560821 5.8747182,-10.415341 0.428882,-0.77248 0.917209,-1.58509 1.085171,-1.8058 0.167961,-0.2207 0.852603,-1.39447 1.521426,-2.608363 1.826763,-3.31552 10.55142,-18.616826 10.699655,-18.765056 0.07099,-0.071 1.280222,0.0693 2.687177,0.31178 3.956925,0.68194 7.361588,1.17571 12.389631,1.79686 8.084242,0.9987 12.988035,1.97744 17.455983,3.484006 7.123417,2.40199 12.8137,5.79908 17.13908,10.23201 1.89019,1.93718 1.89019,1.93718 1.45082,3.663143 -0.35629,1.3996 -0.30757,2.21286 0.25766,4.30098 1.24955,4.61622 4.54472,8.14731 8.6744,9.295471 2.12695,0.59134 2.33564,0.76029 3.14133,2.543 0.86302,1.90957 0.86302,1.90957 0.032,3.31801 -1.23291,2.08963 -1.7597,5.99109 -1.19777,8.87084 0.54693,2.8029 1.64753,4.66592 4.0774,6.90195 2.61675,2.40799 4.72099,3.08433 9.062211,2.91275 3.16151,-0.12496 3.77519,-0.27601 5.2357,-1.2887 1.44029,-0.99866 1.84552,-1.10195 3.13076,-0.798 1.3653,0.32288 1.54002,0.53642 2.32323,2.83925 1.75918,5.17245 5.35707,8.28586 10.15473,8.78731 5.98708,0.62577 11.87841,-3.52954 13.39528,-9.44805 0.41273,-1.61039 0.68187,-1.96332 1.73391,-2.27369 1.04539,-0.30841 1.65271,-0.158 3.78255,0.93679 2.2215,1.1419 2.92054,1.30309 5.61801,1.29537 3.86407,-0.011 5.92226,-0.87956 8.80483,-3.71543 2.18916,-2.1537 3.70623,-5.2199 3.70623,-7.49079 0,-1.09205 0.35391,-1.32676 6.72156,-4.45768 22.72671,-11.174541 27.89704,-13.621231 28.78431,-13.621231 1.84997,0 2.88876,3.68397 2.21223,7.845511 -0.81099,4.98866 -4.26358,9.90819 -8.57532,12.21883 -1.02963,0.55177 -7.05992,4.23874 -13.40066,8.19326 -31.54438,19.67325 -33.91392,21.10479 -34.35324,20.75415 -0.86731,-0.69221 -5.0557,-1.15021 -7.1889,-0.78611 -2.55156,0.4355 -5.70007,1.94266 -7.76781,3.71838 -1.35033,1.15963 -3.72447,5.08213 -4.32489,7.14548 -0.34067,1.17072 -2.69641,0.95768 -12.06735,-1.0913 -3.35599,-0.7338 -6.32256,-0.78255 -8.92303,-0.14665 -6.243111,1.52666 -9.562011,2.60265 -12.991591,4.21189 -3.85656,1.8096 -3.85656,1.8096 -4.12406,4.68472 -0.14713,1.58132 -0.44007,4.22947 -0.65099,5.88478 -0.21091,1.6553 -0.56717,4.99602 -0.79169,7.4238 -0.22451,2.42779 -0.58199,5.40735 -0.7944,6.62124 -0.21241,1.21389 -0.59782,3.47113 -0.85647,5.01609 -1.22643,7.32563 -3.28399,14.13572 -5.72825,18.95923 -2.76618,5.45879 -9.563407,11.29994 -13.183479,11.32912 -0.825276,0.007 -1.253709,-0.30151 -1.747953,-1.25727 z M 191.06263,166.00414 c -2.4645,-0.81179 -6.25088,-2.86093 -6.64412,-3.59571 -0.81233,-1.51786 -2.40467,-2.16144 -5.38179,-2.17517 -1.83182,-0.008 -3.12887,-0.22184 -3.66544,-0.60305 -0.45673,-0.32448 -2.87264,-2.71783 -5.36868,-5.31855 -5.0229,-5.23355 -4.92312,-4.83446 -1.63801,-6.55084 0.7864,-0.41087 2.36919,-1.33666 3.51731,-2.0573 2.6207,-1.64494 3.44222,-1.64603 4.58661,-0.006 1.68988,2.42165 3.50488,2.96199 6.85178,2.03983 3.54031,-0.97544 5.75059,-0.28775 9.24334,2.87594 0.97466,0.88283 3.54375,2.95949 5.7091,4.6148 6.64285,5.07815 6.12181,4.44245 5.24141,6.39482 -0.92784,2.05758 -2.07326,2.90565 -5.39906,3.99746 -2.73995,0.89947 -5.09752,1.02779 -7.05245,0.38384 z M 151.74094,152.1779 c -2.33653,-0.85515 -4.61924,-3.22287 -4.61924,-4.79128 0,-1.12565 0.3794,-1.52849 3.60818,-3.83111 8.60844,-6.13913 17.50936,-12.5593 19.16711,-13.8251 2.91804,-2.22808 4.59395,-2.22238 7.68154,0.0261 0.74994,0.54613 1.62907,0.99297 1.95362,0.99297 0.76082,0 5.71181,-5.03763 5.71181,-5.81177 0,-0.32352 0.58206,-0.8892 1.29346,-1.25708 1.10788,-0.57291 2.10179,-0.63068 6.92774,-0.40265 6.2332,0.29452 6.1091,0.33161 10.40682,-3.1106 1.33253,-1.06727 1.52994,-1.11382 2.68855,-0.63391 2.58506,1.07077 3.37878,4.24327 2.1843,8.73063 -0.76861,2.88747 -2.09452,4.48894 -4.88581,5.9012 -1.96648,0.99495 -2.97568,1.22167 -6.20618,1.39422 -3.79379,0.20263 -3.8896,0.23269 -5.77256,1.8112 -1.05311,0.88283 -2.59482,2.14688 -3.42602,2.809 -0.8312,0.66213 -2.31846,1.88104 -3.30501,2.70869 -1.50808,1.26518 -2.09038,1.50483 -3.65649,1.50483 -1.69457,0 -2.04778,-0.18116 -3.91187,-2.00644 -1.12701,-1.10354 -2.29851,-2.00643 -2.60332,-2.00643 -0.71218,0 -4.49426,2.31999 -10.91608,6.69611 -5.56405,3.79159 -9.02738,5.75958 -10.05834,5.71551 -0.36382,-0.0155 -1.38182,-0.29191 -2.26221,-0.61412 z m -33.5651,-23.78359 c -1.989,-1.26139 -3.55838,-3.93736 -3.55838,-6.06745 0,-0.84899 -0.19437,-1.20824 -0.6537,-1.20824 -0.88561,0 -6.01431,-1.87016 -7.44279,-2.71399 -0.92921,-0.5489 -1.28647,-0.58614 -1.84498,-0.19232 -4.21441,2.97163 -8.873191,2.60958 -11.548141,-0.89746 -1.55131,-2.03388 -1.81895,-5.32944 -0.64783,-7.97697 0.45326,-1.02466 1.02367,-1.86301 1.26759,-1.86301 0.24392,0 -0.211,-1.17036 -1.01094,-2.60078 -0.79995,-1.43043 -1.93906,-4.00369 -2.53136,-5.718341 -1.07071,-3.09957 -1.08617,-3.11886 -2.6784,-3.34276 -2.35124,-0.33063 -4.07106,-1.38809 -5.31508,-3.26807 -0.92229,-1.39377 -1.09707,-2.07833 -1.07264,-4.20113 0.0252,-2.193553 0.19096,-2.735923 1.22708,-4.016093 1.7631,-2.17837 3.05227,-3.00055 5.05955,-3.2268 1.78174,-0.20083 1.79704,-0.21591 2.49985,-2.46392 0.38892,-1.24402 1.38089,-3.61807 2.20438,-5.27566 1.49724,-3.013806 1.49724,-3.013806 0.45532,-4.585476 -0.86028,-1.29769 -1.04172,-2.03718 -1.04084,-4.242 9.3e-4,-2.30861 0.15403,-2.87087 1.13026,-4.15077 1.49781,-1.96373 2.56049,-2.61163 4.78327,-2.9163 2.498491,-0.34246 4.459011,0.0811 5.869791,1.26823 1.17391,0.98778 1.17391,0.98778 3.41439,-0.19078 1.23226,-0.6482 3.50829,-1.58688 5.05785,-2.085949 2.61854,-0.84336 2.81737,-0.988188 2.81737,-2.052199 0,-2.317535 2.33844,-5.535101 4.76413,-6.555188 2.02507,-0.851614 4.24005,-0.696814 6.51346,0.455214 1.67066,0.846588 2.18978,1.386097 2.99239,3.109974 0.5341,1.147134 0.97285,2.57885 0.975,3.181591 0.003,0.868181 0.23323,1.145952 1.10746,1.336801 1.73838,0.379495 3.29085,0.979596 6.3988,2.473446 2.88754,1.3879 2.88754,1.3879 4.24998,0.34871 2.71063,-2.0675 6.98619,-1.87452 9.53754,0.43046 2.98131,2.69344 3.35368,6.85411 0.90327,10.09259 -1.00754,1.33157 -1.00754,1.33157 0.19163,3.611576 0.65955,1.25401 1.59945,3.56791 2.08868,5.142 0.88274,2.84021 0.9016,2.86361 2.4783,3.07509 1.94846,0.26134 3.904,1.55406 5.18741,3.42915 0.78671,1.14941 0.96674,1.916553 0.96551,4.114013 -0.001,2.40628 -0.13388,2.86468 -1.21392,4.19911 -1.45726,1.80049 -3.53693,2.98694 -5.23568,2.98694 -1.18242,0 -1.2855,0.12971 -1.99314,2.50804 -0.41043,1.37942 -1.4461,3.905271 -2.30151,5.613001 -1.55528,3.10496 -1.55528,3.10496 -0.73578,4.25584 2.36804,3.32561 1.98207,7.34196 -0.96679,10.06012 -2.66936,2.46053 -6.18962,2.67738 -9.50351,0.58541 -1.85434,-1.17059 -2.12457,-1.17195 -4.13698,-0.0209 -1.71817,0.98276 -5.3536,2.27955 -6.39049,2.27955 -0.42307,0 -0.62686,0.37544 -0.62686,1.15486 0,1.45467 -0.95503,3.76959 -2.09701,5.08299 -1.32499,1.52387 -2.99969,2.18918 -5.51053,2.18918 -1.80709,0 -2.63613,-0.23378 -4.08298,-1.15134 z m 9.7836,-16.85622 C 140.72685,108.34757 148.62675,95.288979 145.34738,82.795716 143.14428,74.402696 137.478,68.4057 129.15286,65.656 c -3.85924,-1.27467 -10.04357,-1.25766 -13.85291,0.0381 -6.6275,2.25436 -11.27477,6.19897 -14.35326,12.183086 -1.73401,3.37065 -2.38143,6.3475 -2.37534,10.921833 0.004,3.3832 0.18841,4.55469 1.14747,7.30983 4.08452,11.733721 16.30692,18.411421 28.24062,15.429251 z"
       id="path1" /></g></svg>
